<svg width="288" height="288" xmlns="http://www.w3.org/2000/svg">
<style>.s0{fill:#ff4200;}.s1{fill:#ba2c00;}.s2{fill:#cc861f;}.s3{fill:#9fa4a5;}.s4{fill:#e23a05;}.s5{fill:#ff6700;}.s6{fill:#ffce00;}.s7{fill:#ffb000;}.s8{fill:#dd5e00;}.s9{fill:#ffc200;}.s10{fill:#ff9d00;}.s11{fill:#070606;}.s12{fill:#333232;}.s13{fill:#ff8b00;}</style>
<svg viewBox="0 0 130 130" width="288" height="288"><path d="m76.845 83.352.075 16.121-7.075 4.083V87.394z" class="s0"/><path d="m62.847 99.516 6.998 4.04V87.394l-7.074-4.086z" class="s1"/><path d="m69.845 87.394-7.074-4.086.076 16.208" class="s2"/><path d="m41.889 119.741 27.995-16.163 14 8.081-27.998 16.162z" class="s3"/><path d="M62.847 99.516v8.08l14.073 8.125v-8.103z" class="s1"/><path d="M83.843 103.556v8.082l-6.923 4.083v-8.103z" class="s4"/><path d="m76.92 99.473 6.923 4.083-6.923 4.062-7.036-4.062z" class="s5"/><path d="m55.888 95.496.075 16.12-7.076 4.083V99.536z" class="s0"/><path d="m41.889 111.68 6.998 4.04V99.558l-7.073-4.085z" class="s1"/><path d="m48.887 99.558-7.073-4.085.075 16.207" class="s4"/><path d="M41.889 111.68v8.082l14.074 8.125v-8.103z" class="s1"/><path d="M62.886 115.72v8.082l-6.923 4.085v-8.103zM62.847 107.596l14.073 8.125v-2.774l-14.073-8.126z" class="s4"/><path d="m76.92 115.721 6.923-4.083v-2.775l-6.923 4.084z" class="s1"/><path d="m41.889 119.762 14.074 8.125v-2.775l-14.074-8.125z" class="s4"/><path d="m55.963 127.887 6.923-4.085v-2.774l-6.923 4.084z" class="s1"/><path d="m55.963 111.638 6.923 4.082-6.923 4.064-7.038-4.064z" class="s5"/><path d="m52.968 60.534 38.315-22.125v46.94l-38.315 22.122z" class="s6"/><path d="M52.968 107.471V60.534l38.315-22.125" class="s7"/><path d="m14.647 38.409 38.321 22.125v46.937L14.647 85.349z" class="s5"/><path d="m14.647 38.409 38.321 22.125v46.937" class="s8"/><path d="m14.647 38.409 38.321-22.122 38.315 22.122-38.315 22.125z" class="s9"/><path d="M91.283 38.409 52.968 60.534 14.647 38.409" class="s7"/><path d="m27.406 18.806 10.828-6.252v13.265l-10.828 6.252z" class="s6"/><path d="M27.406 32.071V18.806l10.828-6.252" class="s7"/><path d="m16.576 12.554 10.83 6.252v13.265l-10.83-6.252z" class="s5"/><path d="m16.576 12.554 10.83 6.252v13.265" class="s8"/><path d="m16.576 12.554 10.83-6.252 10.828 6.252-10.828 6.252z" class="s9"/><path d="m38.234 12.554-10.828 6.252-10.83-6.252M73.502 36.26l29.57-17.073v36.226l-29.57 17.072z" class="s7"/><path d="M73.502 72.485V36.26l29.57-17.073" class="s10"/><path d="M43.927 19.187 73.502 36.26v36.225L43.927 55.413z" class="s5"/><path d="M43.927 19.187 73.502 36.26v36.225" class="s8"/><path d="M43.927 19.187 73.502 2.113l29.57 17.074-29.57 17.073z" class="s9"/><path d="M103.072 19.187 73.502 36.26 43.927 19.187" class="s7"/><path d="M77.509 48.414v7.322l6.375-3.679-.046-7.296zM92.691 39.589v7.322l6.374-3.679-.045-7.295z" class="s11"/><path d="m77.509 55.736 6.375-3.679-.046-7.296M92.691 46.911l6.374-3.679-.045-7.295" class="s12"/><path d="M97.869 68.529v6.757l17.484-10.095v-6.757z" class="s13"/><path d="M115.353 58.434 97.869 68.529v6.757" class="s5"/><path d="m80.382 58.434 17.487-10.095 17.484 10.095-17.484 10.095z" class="s5"/><path d="M115.353 58.434 97.869 68.529 80.382 58.434" class="s0"/><path d="M97.943 68.529v6.757L80.458 65.191v-6.757z" class="s1"/><path d="m80.458 58.434 17.485 10.095v6.757" class="s1"/></svg></svg>