<svg width="50" height="51"  xmlns="http://www.w3.org/2000/svg">
<style>.s0{fill:#ff4200;}.s1{fill:#ba2c00;}.s5{fill:#ff6700;}.s7{fill:#ffb000;}.s8{fill:#dd5e00;}.s9{fill:#ffc200;}.s10{fill:#ff9d00;}.s11{fill:#070606;}.s12{fill:#333232;}.s13{fill:#ff8b00;}</style>
<svg width="90" height="90" viewBox="0 0 130 130"><path class="s7" d="m29.7 34.2 29.6-17.1v36.2l-29.6 17.1z"/><path class="s10" d="m29.7 70.4v-36.2l29.6-17.1"/><path class="s5" d="m0.1 17.1 29.6 17.1v36.2l-29.6-17.1z"/><path class="s8" d="m0.1 17.1 29.6 17.1v36.2"/><path class="s9" d="M 0.1,17.1 29.7,0 59.3,17.1 29.7,34.2 Z"/><path class="s7" d="M 59.2,17.1 29.6,34.2 0,17.1"/><path class="s11" d="m33.7 46.3v7.32l6.38-3.68-0.046-7.3zm15.2-8.82v7.32l6.37-3.68-0.045-7.3z"/><path class="s12" d="m33.7 53.6 6.38-3.68-0.046-7.3m8.85 2.15 6.37-3.68-0.045-7.3"/><path class="s13" d="m54.1 66.4v6.76l17.5-10.1v-6.76z"/><path class="s5" d="m71.2 56.3-17.5 10.1v6.76"/><path class="s5" d="m36.6 56.3 17.5-10.1 17.5 10.1-17.5 10.1z"/><path class="s0" d="m71.2 56.3-17.5 10.1-17.5-10.1"/><path class="s1" d="m54.1 66.4v6.76l-17.5-10.1v-6.76z"/><path class="s1" d="m36.7 56.3 17.5 10.1v6.76"/></svg>
</svg>
